<svg id="Layer_1" height="512" viewBox="0 0 512 512" width="512" xmlns="http://www.w3.org/2000/svg" xmlns:xlink="http://www.w3.org/1999/xlink" data-name="Layer 1"><linearGradient id="GradientFill_1" gradientUnits="userSpaceOnUse" x1="42.325" x2="461.629" y1="260.868" y2="252.133"><stop offset="0" stop-color="#58c8dd"/><stop offset="1" stop-color="#53a7dd"/></linearGradient><path d="m303.419 264.493a79.165 79.165 0 1 0 79.169 79.165 79.253 79.253 0 0 0 -79.169-79.165zm-189.688-137.467a6 6 0 0 1 6-6h226.738a6 6 0 0 1 0 12h-226.737a6 6 0 0 1 -6-6zm0 49.3a6 6 0 0 1 6-6h226.738a6 6 0 1 1 0 12h-226.737a6 6 0 0 1 -6-6zm0 49.3a6 6 0 0 1 6-6h226.738a6 6 0 1 1 0 12h-226.737a6 6 0 0 1 -6-6zm-16.757-208.581a5.048 5.048 0 0 1 5.043-5.045h164.07v59.734h-146.355a6 6 0 1 0 0 12h146.355v14.366a17.066 17.066 0 0 0 17.046 17.045h86.1v141.036a109.627 109.627 0 0 0 -143.213 10.068c-.878.877-1.727 1.769-2.567 2.665h-103.721a6 6 0 0 0 0 12h93.974a108.8 108.8 0 0 0 -16.725 37.294h-77.249a6 6 0 1 0 0 12h75.1a110.309 110.309 0 0 0 1.939 37.969h-94.754a5.049 5.049 0 0 1 -5.043-5.048zm275.368 395.535a97.422 97.422 0 1 1 0-137.844 97.585 97.585 0 0 1 0 137.844zm15.007 11.72-3.279 3.284-4.911-4.9c.561-.534 1.118-1.071 1.67-1.623s1.09-1.1 1.623-1.661l4.9 4.9zm13.663 31.746 28.736 28.736 14.8-14.8-28.737-28.732-14.8 14.8zm-343.734-31.129a17.065 17.065 0 0 1 -17.045-17.045v-346.088a17.065 17.065 0 0 1 17.045-17.045h27.694v-27.694a17.066 17.066 0 0 1 17.045-17.045h165.533a16.728 16.728 0 0 1 11.988 4.926l96.644 95.591a16.75 16.75 0 0 1 5.048 12.12v154.031a109.619 109.619 0 0 1 9.058 143.605l5.553 5.544 1.51-1.51a6 6 0 0 1 8.487 0l59.373 59.369a22.464 22.464 0 0 1 -31.774 31.765l-59.369-59.364a6.009 6.009 0 0 1 0-8.488l1.51-1.514-5.539-5.544a109.668 109.668 0 0 1 -139.972-5.614zm202.577-81.825a6 6 0 0 1 8.483-8.483l25.183 25.179 44.979-44.988a6 6 0 0 1 8.487 8.488l-49.23 49.23a6 6 0 0 1 -8.478 0z" fill="url(#GradientFill_1)" fill-rule="evenodd"/></svg>