<?xml version="1.0" encoding="utf-8"?>
<!-- Generator: Adobe Illustrator 26.0.1, SVG Export Plug-In . SVG Version: 6.00 Build 0)  -->
<svg version="1.1" id="Layer_1" xmlns="http://www.w3.org/2000/svg" xmlns:xlink="http://www.w3.org/1999/xlink" x="0px" y="0px"
	 viewBox="0 0 1122 1122" style="enable-background:new 0 0 1122 1122;" xml:space="preserve">
<style type="text/css">
	.st0{fill:#616E7D;}
	.st1{fill:#82BFAB;}
	.st2{fill:#FFFFFF;}
	.st3{fill:#AAD4C8;}
</style>
<g id="Object">
	<g>
		<path class="st0" d="M727.2,426.1l-40.4,40.4l-60.1,60.1L585,568.2l-52.7,52.7l-41.7,41.7l-9,9l9.6,9.6l356-356h0l-9.6-9.6
			l-37.7,37.7V249.1c0-3.7-1.5-7.2-4.1-9.8c-2.6-2.6-6.2-4.1-9.8-4.1H319.1c-3.7,0-7.2,1.5-9.8,4.1c-2.6,2.6-4.1,6.2-4.1,9.8v623.7
			c0,3.7,1.5,7.2,4.1,9.8c2.6,2.6,6.2,4.1,9.8,4.1h381.8c3.7,0,7.2-1.5,9.8-4l42.9-42.6l0.1-0.1l42.1-42.3c2.6-2.6,4.1-6.2,4.1-9.8
			V467L772,494.8v265.3h-88.5c-3.7,0-7.2,1.5-9.8,4.1c-2.6,2.6-4.1,6.2-4.1,9.8v84.9H333V263h439v118.1L727.2,426.1z M697.5,787.9
			h74.1l-74.1,71.5V787.9z"/>
		<rect x="395.2" y="334.8" class="st1" width="337.5" height="40.4"/>
		<polygon class="st1" points="357,466.4 686.8,466.4 727.2,426.1 357,426.1 		"/>
		<polygon class="st1" points="358.3,568.2 585,568.2 626.7,526.5 358.3,526.5 		"/>
		<polygon class="st1" points="746.7,568.2 746.7,526.5 740.4,526.5 698.6,568.2 		"/>
		<polygon class="st1" points="746.7,662.7 746.7,620.9 645.9,620.9 604.2,662.7 		"/>
		<polygon class="st1" points="358.3,662.7 490.6,662.7 532.3,620.9 358.3,620.9 		"/>
		<polygon class="st1" points="436.2,757.1 437.6,754.3 456.7,715.4 358.3,715.4 358.3,757.1 		"/>
		<path class="st1" d="M527,737.5l-39.9,19.6h163.1v-41.7h-98.7l-13.1,13.2l0,0v0l-9.6-9.6l-3.6-3.6h-10.6l13.7,13.7
			c1.2,1.2,1.7,2.9,1.5,4.5C529.6,735.3,528.5,736.7,527,737.5z"/>
		<polygon class="st2" points="771.6,787.9 697.5,787.9 697.5,859.4 		"/>
		<path class="st2" d="M727.2,426.1l44.9-44.9V263H333v595.9h336.6V774c0-3.7,1.5-7.2,4.1-9.8c2.6-2.6,6.2-4.1,9.8-4.1H772V494.8
			l27.8-27.8l94.5-94.5L719.9,547l20.5-20.4h6.4v41.7h-48.1L538.4,728.5l0,0l13.1-13.2h98.7v41.7H487.1l-31.4,15.4l-21.9,10.8
			c-2,1-4.4,0.6-6-1c-1.6-1.6-2-4-1-6l9.4-19.2h-77.9v-41.7h98.4l15.8-32.3c0.8-1.5,2.2-2.6,3.8-2.9c1.7-0.3,3.4,0.3,4.5,1.5
			l33.7,33.7h10.6l3.6,3.6l356-356l-37.7-37.7l-356,356l-9.6-9.6l9-9H358.3v-41.7h174l52.7-52.7H358.3v-41.7h268.4l60.1-60.1H357
			v-40.4L727.2,426.1L727.2,426.1z M395.2,334.8h337.5v40.4H395.2V334.8z M604.2,662.7l41.7-41.7h100.8v41.7H604.2z M852.4,332.4
			l25.2,25.2l-356,356l-25.2-25.2L852.4,332.4z"/>
		<polygon class="st2" points="698.6,568.2 698.6,568.2 719.9,547 		"/>
		
			<rect x="435.3" y="505.2" transform="matrix(0.7071 -0.7071 0.7071 0.7071 -168.592 638.9935)" class="st3" width="503.5" height="35.7"/>
		<polygon class="st0" points="538.4,728.5 538.4,728.5 894.4,372.5 884.8,362.9 528.8,719 		"/>
		<path class="st1" d="M481,681.7c-1.2-1.2-2.9-1.7-4.5-1.5c-1.7,0.3-3.1,1.3-3.8,2.9l-15.8,32.3l-19.1,39l18.1,18.1l31.4-15.4
			l39.9-19.6c1.5-0.8,2.6-2.2,2.9-3.8c0.3-1.7-0.3-3.3-1.5-4.5l-13.7-13.7L481,681.7z"/>
		<path class="st0" d="M426.8,776.3c-1,2-0.6,4.4,1,6c1.6,1.6,4,2,6,1l21.9-10.8l-18.1-18.1l-1.4,2.7L426.8,776.3z"/>
		<path class="st0" d="M872.2,281l-6.6,6.6l-11.1,11.1l-11.9,11.9l56.8,56.8l11.9-11.9l11.1-11.1l6.6-6.6
			c15.7-15.7,15.7-41.1,0-56.8C913.3,265.3,887.9,265.3,872.2,281z"/>
	</g>
</g>
</svg>
